<?xml version="1.0" encoding="UTF-8" standalone="no"?>
<svg
   xmlns:dc="http://purl.org/dc/elements/1.1/"
   xmlns:cc="http://creativecommons.org/ns#"
   xmlns:rdf="http://www.w3.org/1999/02/22-rdf-syntax-ns#"
   xmlns:svg="http://www.w3.org/2000/svg"
   xmlns="http://www.w3.org/2000/svg"
   xmlns:sodipodi="http://sodipodi.sourceforge.net/DTD/sodipodi-0.dtd"
   xmlns:inkscape="http://www.inkscape.org/namespaces/inkscape"
   style="enable-background:new"
   height="512"
   viewBox="0 0 512.40002 512"
   width="512.4"
   version="1.1"
   id="svg925"
   sodipodi:docname="logo.svg"
   inkscape:version="0.92.3 (2405546, 2018-03-11)">
  <metadata
     id="metadata929">
    <rdf:RDF>
      <cc:Work
         rdf:about="">
        <dc:format>image/svg+xml</dc:format>
        <dc:type
           rdf:resource="http://purl.org/dc/dcmitype/StillImage" />
      </cc:Work>
    </rdf:RDF>
  </metadata>
  <sodipodi:namedview
     pagecolor="#ffffff"
     bordercolor="#666666"
     borderopacity="1"
     objecttolerance="10"
     gridtolerance="10"
     guidetolerance="10"
     inkscape:pageopacity="0"
     inkscape:pageshadow="2"
     inkscape:window-width="1853"
     inkscape:window-height="1025"
     id="namedview927"
     showgrid="false"
     inkscape:zoom="0.59385921"
     inkscape:cx="-210.66638"
     inkscape:cy="197.18385"
     inkscape:window-x="67"
     inkscape:window-y="27"
     inkscape:window-maximized="1"
     inkscape:current-layer="svg925" />
  <defs
     id="defs897">
    <linearGradient
       id="a"
       y2="494"
       gradientUnits="userSpaceOnUse"
       x2="256"
       gradientTransform="matrix(1 0 0 1.076 0 -19.36)"
       y1="18"
       x1="256">
      <stop
         style="stop-color:#eaeaea"
         offset="0"
         id="stop892" />
      <stop
         style="stop-color:#f4f4f4"
         offset="1"
         id="stop894" />
    </linearGradient>
    <filter
       inkscape:collect="always"
       style="color-interpolation-filters:sRGB"
       id="filter1090"
       x="-0.048710178"
       width="1.0974204"
       y="-0.078102161"
       height="1.1562043">
      <feGaussianBlur
         inkscape:collect="always"
         stdDeviation="9.5241772"
         id="feGaussianBlur1092" />
    </filter>
  </defs>
  <path
     d="m-208.3 605.6c-7.842 0-14.55 5.029-17.32 12.19-0.0612-0.00067-0.1208 0-0.1823 0-7.088 0-12.83 6.002-12.83 13.41 0 7.404 5.746 13.41 12.83 13.41h17.5 16.33c5.155 0 9.333-4.365 9.333-9.75 0-4.543-2.974-8.363-7-9.445 0.001-0.1029 0-0.2015 0-0.3047 0-10.77-8.357-19.5-18.67-19.5z"
     style="stroke-width:4;color:#000000;stroke:#ccc;enable-background:accumulate;display:none;fill:#fff"
     id="path909" />
  <path
     style="stroke-width:4;color:#000000;stroke:#ccc;enable-background:accumulate;display:none;fill:none"
     d="m288.9 828.1c-6.349 0-11.78 4.072-14.02 9.867-0.0496-0.00055-0.0978 0-0.1476 0-5.738 0-10.39 4.86-10.39 10.85 0 5.995 4.652 10.85 10.39 10.85h14.17 13.22c4.173 0 7.557-3.534 7.557-7.894 0-3.678-2.408-6.771-5.667-7.647 0.001-0.0833 0-0.1632 0-0.2467 0-8.719-6.766-15.79-15.11-15.79z"
     id="path911" />
  <g
     style="display:none"
     transform="translate(0 -558.4)"
     id="g923">
    <path
       d="m166.1 576.4h179.9c145.3 0 166.1 20.74 166.1 165.9v144.2c0 145.2-20.76 165.9-166.1 165.9h-179.9c-145.3 0-166.1-20-166.1-165.5v-144.2c0-145.2 20.76-165.9 166.1-165.9z"
       style="stroke:#00f;fill:#00f;display:inline;fill-opacity:.08118"
       id="path913" />
    <circle
       style="stroke-width:.8333;fill-opacity:.08118;color:#000000;stroke:#00f;enable-background:accumulate;display:inline;fill:#00f"
       cx="256"
       transform="matrix(1.2 0 0 1.2 -51.2 528.8)"
       cy="238"
       r="120"
       id="circle915" />
    <rect
       style="stroke-linejoin:round;fill-opacity:.08118;color:#000000;stroke:#00f;stroke-linecap:round;enable-background:accumulate;display:inline;fill:#00f"
       height="272"
       width="272"
       y="678.4"
       x="120"
       id="rect917" />
    <rect
       style="stroke-linejoin:round;fill-opacity:.08118;color:#000000;stroke:#00f;stroke-linecap:round;enable-background:accumulate;display:inline;fill:#00f"
       height="240"
       width="304"
       y="694.4"
       x="104"
       id="rect919" />
    <rect
       style="stroke-linejoin:round;fill-opacity:.08118;color:#000000;stroke:#00f;stroke-linecap:round;enable-background:accumulate;display:inline;fill:#00f"
       height="304"
       width="240"
       y="662.4"
       x="136"
       id="rect921" />
  </g>
  <g
     id="g1111">
    <rect
       id="rect899"
       x="0"
       y="0"
       width="512"
       height="512"
       style="color:#000000;fill:#0086c5;fill-opacity:0.39215687;enable-background:accumulate" />
    <path
       style="color:#000000;opacity:0.15;fill:#ffffff;enable-background:accumulate"
       d="M 0,0 V 512 H 108.2 L 184.6,379.7 256,256 187.1,136 186.9,136.3 108.2,0 Z"
       id="path905"
       inkscape:connector-curvature="0" />
    <path
       style="color:#000000;opacity:0.3;fill:#ffffff;enable-background:accumulate"
       d="M 256,256 108.2,512 H 512 V 256 H 389.3 Z"
       id="path903"
       inkscape:connector-curvature="0" />
    <path
       sodipodi:nodetypes="ccscscccsccccccc"
       inkscape:connector-curvature="0"
       id="path942-3"
       d="m 184.12832,136.44979 c 12.33346,6.06111 10.83441,93.55694 102.33827,116.09741 15.43937,-17.05851 42.08875,-80.1705 112.35161,-72.94536 46.29773,4.7608 43.45962,38.6098 43.45962,38.6098 0,0 53.09466,-6.68652 53.33772,-2.62372 0.24307,4.0628 -42.53246,26.91117 -42.53246,26.91117 0,0 28.7228,4.19347 43.88292,1.57064 -5.32963,5.05286 -49.7076,26.12789 -61.55492,28.19239 -20.60909,36.94574 -91.66387,118.60225 -157.23605,141.83113 -65.57216,23.22888 -174.9911,26.38865 -250.474923,-41.02132 31.463843,0.67486 56.349043,10.19331 114.881223,-5.65106 -37.26815,-28.91267 -41.03342,-60.58466 -36.05725,-71.20156 13.49927,13.04197 38.77161,4.01974 38.77161,4.01974 -44.98783,-20.38343 -31.22517,-59.21498 -22.63223,-78.15931 10.48543,3.9108 14.64034,13.35628 29.23117,13.37942 -7.00466,-28.3399 -21.07487,-27.1162 32.23369,-99.00937 z"
       style="opacity:0.5;fill:#000000;fill-opacity:0.5;fill-rule:evenodd;stroke:none;stroke-width:1.46424448px;stroke-linecap:butt;stroke-linejoin:miter;stroke-opacity:1;filter:url(#filter1090);enable-background:new" />
    <path
       sodipodi:nodetypes="ccscscccsccccccc"
       inkscape:connector-curvature="0"
       id="path942"
       d="m 43.662223,107.67376 c 14.202777,2.56826 59.178247,87.32068 152.679877,84.75243 4.73426,-20.54605 -4.91456,-88.46894 61.54537,-100.161948 43.7919,-7.704777 59.17824,25.682558 59.17824,25.682558 0,0 43.79191,-20.54605 46.15904,-16.69367 2.36713,3.85238 -23.6713,37.2397 -23.6713,37.2397 0,0 27.82449,-3.58462 39.95067,-10.13914 -2.0766,6.28675 -30.48216,38.38994 -39.95067,43.52645 1.18356,41.09209 -18.93703,138.68578 -65.09607,178.49373 C 228.29835,390.18182 132.42959,422.28501 29.459436,377.34055 57.865,369.63577 85.08699,372.20404 128.87889,341.38498 80.35273,323.40719 60.23212,293.87226 59.04856,282.31511 77.9856,291.304 95.73907,275.89448 95.73907,275.89448 44.845787,268.1897 36.560822,227.09763 34.193694,206.55158 45.61089,207.53749 54.3143,215.54048 67.33351,211.6881 46.088828,186.22586 34.193694,191.14206 43.662223,107.67376 Z"
       style="fill:#0086c5;fill-opacity:1;fill-rule:evenodd;stroke:none;stroke-width:1.46424448px;stroke-linecap:butt;stroke-linejoin:miter;stroke-opacity:1" />
  </g>
</svg>
