<?xml version="1.0" encoding="UTF-8" standalone="no"?>
<svg
   xmlns:dc="http://purl.org/dc/elements/1.1/"
   xmlns:cc="http://creativecommons.org/ns#"
   xmlns:rdf="http://www.w3.org/1999/02/22-rdf-syntax-ns#"
   xmlns:svg="http://www.w3.org/2000/svg"
   xmlns="http://www.w3.org/2000/svg"
   xmlns:sodipodi="http://sodipodi.sourceforge.net/DTD/sodipodi-0.dtd"
   xmlns:inkscape="http://www.inkscape.org/namespaces/inkscape"
   style="enable-background:new"
   height="1306.8011"
   viewBox="0 0 858.8836 1306.8011"
   width="858.88361"
   version="1.1"
   id="svg925"
   sodipodi:docname="splash.svg"
   inkscape:version="0.92.3 (2405546, 2018-03-11)">
  <metadata
     id="metadata929">
    <rdf:RDF>
      <cc:Work
         rdf:about="">
        <dc:format>image/svg+xml</dc:format>
        <dc:type
           rdf:resource="http://purl.org/dc/dcmitype/StillImage" />
        <dc:title></dc:title>
      </cc:Work>
    </rdf:RDF>
  </metadata>
  <sodipodi:namedview
     pagecolor="#ffffff"
     bordercolor="#666666"
     borderopacity="1"
     objecttolerance="10"
     gridtolerance="10"
     guidetolerance="10"
     inkscape:pageopacity="0"
     inkscape:pageshadow="2"
     inkscape:window-width="1853"
     inkscape:window-height="1025"
     id="namedview927"
     showgrid="false"
     inkscape:zoom="0.59385921"
     inkscape:cx="235.65999"
     inkscape:cy="656.35376"
     inkscape:window-x="67"
     inkscape:window-y="27"
     inkscape:window-maximized="1"
     inkscape:current-layer="svg925" />
  <defs
     id="defs897">
    <linearGradient
       id="a"
       y2="494"
       gradientUnits="userSpaceOnUse"
       x2="256"
       gradientTransform="matrix(1,0,0,1.076,0,-19.36)"
       y1="18"
       x1="256">
      <stop
         style="stop-color:#eaeaea"
         offset="0"
         id="stop892" />
      <stop
         style="stop-color:#f4f4f4"
         offset="1"
         id="stop894" />
    </linearGradient>
    <filter
       inkscape:collect="always"
       style="color-interpolation-filters:sRGB"
       id="filter1090"
       x="-0.048710179"
       width="1.0974205"
       y="-0.078102164"
       height="1.1562043">
      <feGaussianBlur
         inkscape:collect="always"
         stdDeviation="9.5241772"
         id="feGaussianBlur1092" />
    </filter>
  </defs>
  <rect
     style="opacity:1;fill:#ffffff;fill-opacity:1;stroke:none;stroke-width:1.98474526"
     id="rect900"
     width="858.88361"
     height="1306.8011"
     x="0"
     y="0" />
  <path
     d="m 0.50369568,1024.8913 c -7.84199998,0 -14.54999968,5.029 -17.31999968,12.19 -0.0612,-7e-4 -0.1208,0 -0.1823,0 -7.088,0 -12.83,6.002 -12.83,13.41 0,7.404 5.746,13.41 12.83,13.41 H 0.50139568 16.831396 c 5.155,0 9.333,-4.365 9.333,-9.75 0,-4.543 -2.974,-8.363 -7,-9.445 0.001,-0.1029 0,-0.2015 0,-0.3047 0,-10.77 -8.357,-19.5 -18.67000032,-19.5 z"
     style="color:#000000;display:none;fill:#ffffff;stroke:#cccccc;stroke-width:4;enable-background:accumulate"
     id="path909"
     inkscape:connector-curvature="0" />
  <path
     style="color:#000000;display:none;fill:none;stroke:#cccccc;stroke-width:4;enable-background:accumulate"
     d="m 497.7037,1247.3913 c -6.349,0 -11.78,4.072 -14.02,9.867 -0.0496,-6e-4 -0.0978,0 -0.1476,0 -5.738,0 -10.39,4.86 -10.39,10.85 0,5.995 4.652,10.85 10.39,10.85 h 14.17 13.22 c 4.173,0 7.557,-3.534 7.557,-7.894 0,-3.678 -2.408,-6.771 -5.667,-7.647 10e-4,-0.083 0,-0.1632 0,-0.2467 0,-8.719 -6.766,-15.79 -15.11,-15.79 z"
     id="path911"
     inkscape:connector-curvature="0" />
  <g
     style="display:none"
     transform="translate(208.8037,-139.10871)"
     id="g923">
    <path
       d="M 166.1,576.4 H 346 c 145.3,0 166.1,20.74 166.1,165.9 v 144.2 c 0,145.2 -20.76,165.9 -166.1,165.9 H 166.1 C 20.8,1052.4 0,1032.4 0,886.9 V 742.7 C 0,597.5 20.76,576.8 166.1,576.8 Z"
       style="display:inline;fill:#0000ff;fill-opacity:0.08117999;stroke:#0000ff"
       id="path913"
       inkscape:connector-curvature="0" />
    <circle
       style="color:#000000;display:inline;fill:#0000ff;fill-opacity:0.08117999;stroke:#0000ff;stroke-width:0.83329999;enable-background:accumulate"
       cx="256"
       transform="matrix(1.2,0,0,1.2,-51.2,528.8)"
       cy="238"
       r="120"
       id="circle915" />
    <rect
       style="color:#000000;display:inline;fill:#0000ff;fill-opacity:0.08117999;stroke:#0000ff;stroke-linecap:round;stroke-linejoin:round;enable-background:accumulate"
       height="272"
       width="272"
       y="678.40002"
       x="120"
       id="rect917" />
    <rect
       style="color:#000000;display:inline;fill:#0000ff;fill-opacity:0.08117999;stroke:#0000ff;stroke-linecap:round;stroke-linejoin:round;enable-background:accumulate"
       height="240"
       width="304"
       y="694.40002"
       x="104"
       id="rect919" />
    <rect
       style="color:#000000;display:inline;fill:#0000ff;fill-opacity:0.08117999;stroke:#0000ff;stroke-linecap:round;stroke-linejoin:round;enable-background:accumulate"
       height="304"
       width="240"
       y="662.40002"
       x="136"
       id="rect921" />
  </g>
  <rect
     style="color:#000000;fill:#0086c5;fill-opacity:0.39215686;stroke-width:2.06919742;enable-background:accumulate"
     height="1306.801"
     width="858.88361"
     y="-1.7941204e-13"
     x="-5.3290705e-15"
     id="rect899" />
  <path
     inkscape:connector-curvature="0"
     id="path905"
     d="M 0,-483.27953 V 1010.4345 H 506.75826 L 864.58018,624.46113 1198.9845,263.57748 876.28902,-86.511737 875.3523,-85.636518 506.75826,-483.27953 Z"
     style="color:#000000;opacity:0.15;fill:#ffffff;stroke-width:3.69645596;enable-background:accumulate" />
  <path
     inkscape:connector-curvature="0"
     id="path903"
     d="M 407.51189,-520.27828 77.88979,1320.2724 H 978.44057 V -520.27828 H 704.79624 Z"
     style="color:#000000;opacity:0.3;fill:#ffffff;stroke-width:4.00428391;enable-background:accumulate" />
  <path
     style="opacity:0.5;fill:#000000;fill-opacity:0.5;fill-rule:evenodd;stroke:none;stroke-width:1.46424448px;stroke-linecap:butt;stroke-linejoin:miter;stroke-opacity:1;filter:url(#filter1090);enable-background:new"
     d="m 392.93202,555.74108 c 12.33346,6.06111 10.83441,93.55694 102.33827,116.09741 15.43937,-17.05851 42.08875,-80.1705 112.35161,-72.94536 46.29773,4.7608 43.45962,38.6098 43.45962,38.6098 0,0 53.09466,-6.68652 53.33772,-2.62372 0.24307,4.0628 -42.53246,26.91117 -42.53246,26.91117 0,0 28.7228,4.19347 43.88292,1.57064 -5.32963,5.05286 -49.7076,26.12789 -61.55492,28.19239 -20.60909,36.94574 -91.66387,118.60225 -157.23605,141.83113 -65.57216,23.22888 -174.9911,26.38865 -250.47492,-41.02132 31.46384,0.67486 56.34904,10.19331 114.88122,-5.65106 -37.26815,-28.91267 -41.03342,-60.58466 -36.05725,-71.20156 13.49927,13.04197 38.77161,4.01974 38.77161,4.01974 -44.98783,-20.38343 -31.22517,-59.21498 -22.63223,-78.15931 10.48543,3.9108 14.64034,13.35628 29.23117,13.37942 -7.00466,-28.3399 -21.07487,-27.1162 32.23369,-99.00937 z"
     id="path942-3"
     inkscape:connector-curvature="0"
     sodipodi:nodetypes="ccscscccsccccccc" />
  <path
     style="fill:#0086c5;fill-opacity:1;fill-rule:evenodd;stroke:none;stroke-width:1.46424448px;stroke-linecap:butt;stroke-linejoin:miter;stroke-opacity:1"
     d="m 252.46592,526.96505 c 14.20278,2.56826 59.17825,87.32068 152.67988,84.75243 4.73426,-20.54605 -4.91456,-88.46894 61.54537,-100.16195 43.7919,-7.70477 59.17824,25.68256 59.17824,25.68256 0,0 43.79191,-20.54605 46.15904,-16.69367 2.36713,3.85238 -23.6713,37.2397 -23.6713,37.2397 0,0 27.82449,-3.58462 39.95067,-10.13914 -2.0766,6.28675 -30.48216,38.38994 -39.95067,43.52645 1.18356,41.09209 -18.93703,138.68578 -65.09607,178.49373 -46.15903,39.80795 -142.02779,71.91114 -244.99794,26.96668 28.40556,-7.70478 55.62755,-5.13651 99.41945,-35.95557 -48.52616,-17.97779 -68.64677,-47.51272 -69.83033,-59.06987 18.93704,8.98889 36.69051,-6.42063 36.69051,-6.42063 -50.89328,-7.70478 -59.17825,-48.79685 -61.54538,-69.3429 11.4172,0.98591 20.12061,8.9889 33.13982,5.13652 -21.24468,-25.46224 -33.13982,-20.54604 -23.67129,-104.01434 z"
     id="path942"
     inkscape:connector-curvature="0"
     sodipodi:nodetypes="ccscscccsccccccc" />
</svg>
